<svg width="223" height="290" viewBox="0 0 223 290" fill="none" xmlns="http://www.w3.org/2000/svg">
<g clip-path="url(#clip0_156_5240)">
<path opacity="0.1" d="M109.023 290C166.512 290 213.116 281.86 213.116 271.818C213.116 261.777 166.512 253.636 109.023 253.636C51.5341 253.636 4.93009 261.777 4.93009 271.818C4.93009 281.86 51.5341 290 109.023 290Z" fill="#5252DD"/>
<path d="M198.254 121.24C195.628 121.24 193.097 122.186 191.116 123.898L172.887 139.697C170.942 141.385 168.053 141.385 166.107 139.697L147.879 123.898C145.897 122.174 143.367 121.228 140.74 121.228C138.126 121.228 135.583 122.174 133.602 123.886L115.421 139.638C113.452 141.349 110.515 141.349 108.546 139.638L90.3651 123.886C88.3835 122.162 85.8528 121.228 83.2266 121.228C80.6004 121.228 78.0697 122.174 76.0881 123.898L57.9077 139.65C55.938 141.361 53.0014 141.361 51.0318 139.65L32.8513 123.898C30.8698 122.186 28.3391 121.24 25.7129 121.24C23.0986 121.24 20.556 122.186 18.5744 123.898L2.96044 137.435C2.17258 143.384 1.61153 149.345 1.36085 155.282L22.2749 137.16C24.2565 135.448 27.1811 135.448 29.1508 137.16L47.3312 152.912C49.3128 154.624 51.8435 155.569 54.4697 155.569C57.084 155.569 59.6266 154.624 61.6082 152.9L79.7887 137.148C81.7702 135.436 84.6949 135.436 86.6645 137.148L104.845 152.9C106.827 154.624 109.357 155.569 111.983 155.569C114.61 155.569 117.14 154.624 119.122 152.912L137.302 137.16C139.272 135.448 142.209 135.448 144.178 137.16L162.347 152.912C164.328 154.635 166.859 155.581 169.485 155.581C172.1 155.581 174.642 154.635 176.624 152.924L194.804 137.172C196.786 135.46 199.71 135.46 201.68 137.172L221.556 154.384C221.281 148.423 220.708 142.438 219.884 136.478L205.369 123.909C203.387 122.198 200.856 121.252 198.23 121.252L198.254 121.24Z" fill="#E8E8FC" stroke="#3E3E49" stroke-width="2" stroke-miterlimit="10"/>
<path d="M169.497 155.581C166.871 155.581 164.34 154.636 162.359 152.912L144.142 137.124C142.197 135.436 139.308 135.436 137.35 137.124L119.122 152.912C117.14 154.636 114.61 155.569 111.983 155.569C109.357 155.569 106.827 154.624 104.845 152.9L86.6407 137.124C84.6829 135.424 81.7702 135.424 79.8125 137.124L61.6082 152.9C59.6266 154.624 57.0959 155.569 54.4697 155.569C51.8555 155.569 49.3128 154.624 47.3313 152.912L29.1389 137.16C27.1692 135.448 24.2326 135.448 22.263 137.16L1.34891 155.282C1.24148 157.915 1.16985 160.537 1.16985 163.158C1.16985 240.805 50.5543 275.613 111.47 275.613C172.386 275.613 221.77 240.805 221.77 163.158C221.77 160.237 221.675 157.305 221.544 154.372L201.68 137.16C199.698 135.448 196.762 135.448 194.78 137.16L176.612 152.9C174.63 154.624 172.1 155.557 169.473 155.557L169.497 155.581Z" fill="white" stroke="#3E3E49" stroke-width="2" stroke-miterlimit="10"/>
<path d="M32.8514 123.898L51.0437 139.65C53.0134 141.361 55.95 141.361 57.9196 139.65L76.1001 123.898C78.0816 122.174 80.6124 121.228 83.2385 121.228C85.8647 121.228 88.3954 122.174 90.377 123.886L108.569 139.65C110.539 141.349 113.452 141.349 115.421 139.65L133.614 123.886C135.595 122.162 138.126 121.228 140.752 121.228C143.378 121.228 145.909 122.174 147.891 123.898L166.059 139.65C168.041 141.361 170.965 141.361 172.947 139.65L191.128 123.898C193.109 122.174 195.64 121.24 198.266 121.24C200.88 121.24 203.423 122.186 205.404 123.898L219.92 136.466C210.358 67.3771 165.474 1.19702 111.494 1.19702C57.5137 1.19702 12.2238 67.9995 2.97238 137.435L18.5863 123.898C20.5679 122.174 23.0986 121.24 25.7248 121.24C28.3391 121.24 30.8817 122.186 32.8633 123.898H32.8514Z" fill="white" stroke="#3E3E49" stroke-width="2" stroke-miterlimit="10"/>
<path d="M77.7713 80.4597C81.2193 80.4597 84.0145 77.6569 84.0145 74.1996C84.0145 70.7422 81.2193 67.9395 77.7713 67.9395C74.3233 67.9395 71.5281 70.7422 71.5281 74.1996C71.5281 77.6569 74.3233 80.4597 77.7713 80.4597Z" fill="#3E3E49"/>
<path d="M119.098 80.5315C117.021 83.476 113.404 85.2595 109.811 85.1398C106.445 85.0201 103.186 83.2606 101.252 80.4956" stroke="#3E3E49" stroke-width="3" stroke-linecap="round" stroke-linejoin="round"/>
<path d="M144.274 80.4597C147.722 80.4597 150.517 77.6569 150.517 74.1996C150.517 70.7422 147.722 67.9395 144.274 67.9395C140.826 67.9395 138.031 70.7422 138.031 74.1996C138.031 77.6569 140.826 80.4597 144.274 80.4597Z" fill="#3E3E49"/>
<path d="M39.763 235.837C39.763 235.837 44.5976 247.472 58.7194 249.914" stroke="#E8E8FC" stroke-width="5" stroke-linecap="round" stroke-linejoin="round"/>
<path d="M150.553 28.7271C150.553 28.7271 143.963 17.9903 129.651 17.7869" stroke="#E8E8FC" stroke-width="5" stroke-linecap="round" stroke-linejoin="round"/>
</g>
<defs>
<clipPath id="clip0_156_5240">
<rect width="223" height="290" fill="white"/>
</clipPath>
</defs>
</svg>
